# xmcd
#
# Track frame offsets: 
#        150
#        14976
#        30877
#        53613
#        77907
#        103727
#        125932
#        147677
#        163497
#        182616
#        199094
#        214749
#        231733
#        248011
#        269218
#        286625
#        303104
#
# Disc length: 4358 seconds
#
# Revision: 3
# Processed by: cddbd v1.5.2PL0 Copyright (c) Steve Scherf et al.
# Submitted via: ExactAudioCopy v0.99pb5
#
DISCID=07110411
DTITLE=Various Artist - DJ Hits 105
DYEAR=1997
DGENRE=Eurodance
TTITLE0=Primary - 2001 (Radio Version)
TTITLE1=Daniel Amalm - Classical Gas (Radio Mix)
TTITLE2=Captain Jack - Soldier Soldier (Wedding Bells Mix Version)
TTITLE3=Fiesta Del Sol - Marinero
TTITLE4=E-Rotic - Fritz Love My Tits (Extended Version)
TTITLE5=Unlimited Nation - Move Your Body (Dance Edit)
TTITLE6=Edison - The Whistle (Extended Vocal Mix)
TTITLE7=Alannah Myles - You Love Who You Love
TTITLE8=Happy Project - Time
TTITLE9=Mike L.G. - Theme Of My Dream
TTITLE10=Double Mission - Cadillac
TTITLE11=Daisy Dee - Just Yomp
TTITLE12=Jeremy Jackson - Sad Eyes
TTITLE13=Koffi, Trev and Wins - Love Is A Firework
TTITLE14=Ginger - Schoner Frender Mann
TTITLE15=Once and Twice - Sunshine And Rain (Off Beat Radio Edit)
TTITLE16=M.A.N. - Stay (F.T. and Company Edit)
EXTD=by MoPo3 YEAR: 1997
EXTT0=
EXTT1=
EXTT2=
EXTT3=
EXTT4=
EXTT5=
EXTT6=
EXTT7=
EXTT8=
EXTT9=
EXTT10=
EXTT11=
EXTT12=
EXTT13=
EXTT14=
EXTT15=
EXTT16=
PLAYORDER=
